<svg width="85" height="85" viewBox="0 0 85 85" fill="none" xmlns="http://www.w3.org/2000/svg">
<path d="M49.085 16.8721C49.085 20.8311 45.876 24.0411 41.919 24.0411C37.96 24.0411 34.751 20.8311 34.751 16.8721C34.751 12.9161 37.96 9.70605 41.919 9.70605C45.876 9.70605 49.085 12.9161 49.085 16.8721Z" stroke="#F46150" stroke-width="2.5" stroke-linecap="round" stroke-linejoin="round"/>
<path d="M72.478 63.635L57.193 54.533L57.782 38.411C58.233 29.89 50.06 30.138 50.06 30.138H34.942C34.942 30.138 26.768 29.89 27.219 38.411L27.805 54.533L12.523 63.635" stroke="#F46150" stroke-width="2.5" stroke-linecap="round" stroke-linejoin="round"/>
<path d="M27.646 75.2951H21.304C18.829 75.2951 16.805 73.2701 16.805 70.7951C16.805 68.3181 18.014 67.0881 20.97 65.2751L34.103 57.9631L33.472 38.7261" stroke="#F46150" stroke-width="2.5" stroke-linecap="round" stroke-linejoin="round"/>
<path d="M51.528 38.7261L50.899 57.9631L64.028 65.2751C66.987 67.0871 68.196 68.3181 68.196 70.7951C68.196 73.2701 66.171 75.2951 63.696 75.2951C63.696 75.2951 38.679 75.2951 36.346 75.2951C33.725 75.2951 33.037 73.6641 33.037 73.6641C29.225 65.9761 38.084 66.2661 38.084 66.2661H48.25" stroke="#F46150" stroke-width="2.5" stroke-linecap="round" stroke-linejoin="round"/>
</svg>
