<svg width="85" height="85" viewBox="0 0 85 85" fill="none" xmlns="http://www.w3.org/2000/svg">
<path d="M64.844 40.741V27.765C64.83 25.612 66.233 23.838 68.172 23.826C70.108 23.816 71.703 25.568 71.717 27.723V52.91L60.168 67.99C60.168 67.99 58.916 69.449 59.287 74.785" stroke="#F46150" stroke-width="2.5" stroke-miterlimit="10" stroke-linejoin="round"/>
<path d="M45.469 74.9101L45.483 63.2071C45.483 58.6601 50.786 55.5821 50.786 55.5821C53.186 53.9731 55.919 51.1721 55.919 51.1721L60.444 46.2661C62.309 44.2451 65.003 43.6661 66.428 44.9811C67.856 46.2931 67.496 49.0221 65.631 51.0421L59.27 57.9331" stroke="#F46150" stroke-width="2.5" stroke-miterlimit="10"/>
<path d="M20.159 40.741L20.157 27.764C20.171 25.611 18.768 23.837 16.829 23.825C14.893 23.815 13.298 25.567 13.284 27.722L13.286 52.91L24.833 67.99C24.833 67.99 26.085 69.449 25.714 74.785" stroke="#F46150" stroke-width="2.5" stroke-miterlimit="10" stroke-linejoin="round"/>
<path d="M39.532 74.9101L39.518 63.2071C39.518 58.6601 34.215 55.5821 34.215 55.5821C31.815 53.9731 29.084 51.1721 29.084 51.1721L24.557 46.2661C22.694 44.2451 20 43.6661 18.573 44.9811C17.147 46.2931 17.507 49.0221 19.372 51.0421L25.733 57.9331" stroke="#F46150" stroke-width="2.5" stroke-miterlimit="10"/>
<path d="M38.983 34.4321C37.912 31.8891 37.008 28.7241 37.008 25.2941C37.008 16.8961 42.428 10.0891 42.428 10.0891C42.428 10.0891 47.848 16.8961 47.848 25.2941C47.848 33.6891 42.428 40.4951 42.428 40.4951" stroke="#F46150" stroke-width="2.5" stroke-miterlimit="10" stroke-linecap="round" stroke-linejoin="round"/>
<path d="M31.64 20.3672C28.009 18.0352 24.771 17.1172 24.771 17.1172C24.771 17.1172 23.856 26.2052 28.751 33.0262C33.649 39.8472 38.402 40.4952 42.5 40.4952C46.598 40.4952 51.352 39.8482 56.25 33.0262C61.146 26.2052 60.23 17.1172 60.23 17.1172C60.23 17.1172 52.849 19.2092 47.896 25.1072" stroke="#F46150" stroke-width="2.5" stroke-miterlimit="10" stroke-linecap="round" stroke-linejoin="round"/>
</svg>
