<svg width="85" height="85" viewBox="0 0 85 85" fill="none" xmlns="http://www.w3.org/2000/svg">
<path d="M53.814 41.5379C54.252 41.2759 54.648 40.9659 54.99 40.6079C58.957 36.4769 56.414 27.9579 50.316 24.8369C42.446 20.8059 35.366 22.2759 35.366 22.2759C35.366 22.2759 34.834 30.0059 38.958 36.9369C41.095 40.5229 45.279 42.4659 49.018 42.6049" stroke="#F46150" stroke-width="2.5" stroke-miterlimit="10"/>
<path d="M44.518 29.7058C47.883 32.6048 54.133 39.4798 57.057 48.9978" stroke="#F46150" stroke-width="2.5" stroke-miterlimit="10" stroke-linecap="round" stroke-linejoin="round"/>
<path d="M62.514 72.7169C62.008 69.7639 61.276 64.9629 61.563 60.2849C61.563 60.2849 63.266 52.6149 66.676 47.7149C66.676 47.7149 77.543 29.1799 61.348 17.2469C61.348 17.2469 47.02 6.62291 29.687 16.4559C29.687 16.4559 20.02 20.6399 22.064 34.0209C22.064 34.0209 22.478 37.7649 21.294 39.5119L14.892 47.0379C14.892 47.0379 14.04 49.2739 16.597 49.4869L20.499 50.2919C20.499 50.2919 22.13 53.4759 22.294 55.9229C22.458 58.3719 21.886 61.3919 21.886 61.3919C21.886 61.3919 20.499 65.0639 22.677 66.6769C23.105 66.7819 24.704 68.5969 36.103 66.1459C36.103 66.1459 37.205 66.6669 37.902 72.6249" stroke="#F46150" stroke-width="2.5" stroke-miterlimit="10" stroke-linecap="round" stroke-linejoin="round"/>
<path d="M22.784 56.0879L27.681 56.1699" stroke="#F46150" stroke-width="2.5" stroke-miterlimit="10" stroke-linecap="round" stroke-linejoin="round"/>
</svg>
